HIERARCHY
ROOT Hips
{
  OFFSET 5.72205e-005 65.662 3.42586
  CHANNELS 6 Xposition Yposition Zposition Zrotation Xrotation Yrotation
  JOINT Chest
  {
    OFFSET 0 8.7983 -4.7612
    CHANNELS 3 Zrotation Xrotation Yrotation
    JOINT Chest2
    {
      OFFSET 0 8.0291 0.4195
      CHANNELS 3 Zrotation Xrotation Yrotation
      JOINT Chest3
      {
        OFFSET 0 9.9351 -2.2114
        CHANNELS 3 Zrotation Xrotation Yrotation
        JOINT Neck
        {
          OFFSET 0 22.3885 -0.4656
          CHANNELS 3 Zrotation Xrotation Yrotation
          JOINT Head
          {
            OFFSET -0.0001 12.643 3.4389
            CHANNELS 3 Zrotation Xrotation Yrotation
            End Site
            {
              OFFSET 0.0001 17.6655 0.5274
            }
          }
        }
        JOINT LeftCollar
        {
          OFFSET 2.2603 21.606 7.4023
          CHANNELS 3 Zrotation Xrotation Yrotation
          JOINT LeftShoulder
          {
            OFFSET 13.5163 -1.1332 -5.0146
            CHANNELS 3 Zrotation Xrotation Yrotation
            JOINT LeftElbow
            {
              OFFSET -0.0995 -28.05 -0.2431
              CHANNELS 3 Zrotation Xrotation Yrotation
              JOINT LeftWrist
              {
                OFFSET 0.0679 -23.3996 -0.1402
                CHANNELS 3 Zrotation Xrotation Yrotation
                JOINT LeftFinger1
                {
                  OFFSET 0.7932 -9.069 2.5189
                  CHANNELS 3 Zrotation Xrotation Yrotation
                  JOINT LeftFinger11
                  {
                    OFFSET -0.8272 -3.3923 0.5977
                    CHANNELS 3 Zrotation Xrotation Yrotation
                    JOINT LeftFinger12
                    {
                      OFFSET -0.5649 -2.3158 0.4082
                      CHANNELS 3 Zrotation Xrotation Yrotation
                      End Site
                      {
                        OFFSET -0.4919 -1.6479 0.2673
                      }
                    }
                  }
                }
                JOINT LeftFinger2
                {
                  OFFSET 0.9159 -9.2044 0.2193
                  CHANNELS 3 Zrotation Xrotation Yrotation
                  JOINT LeftFinger21
                  {
                    OFFSET 0.0117 -4.1944 -0.0248
                    CHANNELS 3 Zrotation Xrotation Yrotation
                    JOINT LeftFinger22
                    {
                      OFFSET 0.0071 -2.3249 -0.0142
                      CHANNELS 3 Zrotation Xrotation Yrotation
                      End Site
                      {
                        OFFSET -0.1475 -2.0882 0.0028
                      }
                    }
                  }
                }
                JOINT LeftFinger3
                {
                  OFFSET 0.6113 -8.7231 -2.0637
                  CHANNELS 3 Zrotation Xrotation Yrotation
                  JOINT LeftFinger31
                  {
                    OFFSET -0.1927 -3.8059 -0.2383
                    CHANNELS 3 Zrotation Xrotation Yrotation
                    JOINT LeftFinger32
                    {
                      OFFSET -0.1091 -2.1688 -0.1362
                      CHANNELS 3 Zrotation Xrotation Yrotation
                      End Site
                      {
                        OFFSET -0.2358 -1.9176 -0.0906
                      }
                    }
                  }
                }
                JOINT LeftFinger4
                {
                  OFFSET -0.6151 -8.0947 -3.5641
                  CHANNELS 3 Zrotation Xrotation Yrotation
                  JOINT LeftFinger41
                  {
                    OFFSET -0.4882 -2.341 -0.6462
                    CHANNELS 3 Zrotation Xrotation Yrotation
                    JOINT LeftFinger42
                    {
                      OFFSET -0.3575 -1.7167 -0.4742
                      CHANNELS 3 Zrotation Xrotation Yrotation
                      End Site
                      {
                        OFFSET -0.4187 -1.5237 -0.3496
                      }
                    }
                  }
                }
                JOINT LeftFinger0
                {
                  OFFSET -1.42 -1.8761 1.4223
                  CHANNELS 3 Zrotation Xrotation Yrotation
                  JOINT LeftFinger01
                  {
                    OFFSET -1.1471 -3.4929 2.6334
                    CHANNELS 3 Zrotation Xrotation Yrotation
                    JOINT LeftFinger02
                    {
                      OFFSET -0.823 -2.3 1.6571
                      CHANNELS 3 Zrotation Xrotation Yrotation
                      End Site
                      {
                        OFFSET -0.5822 -1.6914 1.1582
                      }
                    }
                  }
                }
              }
            }
          }
        }
        JOINT RightCollar
        {
          OFFSET -2.2603 21.606 7.4023
          CHANNELS 3 Zrotation Xrotation Yrotation
          JOINT RightShoulder
          {
            OFFSET -13.5187 -1.1334 -5.0155
            CHANNELS 3 Zrotation Xrotation Yrotation
            JOINT RightElbow
            {
              OFFSET 0.0994 -28.0499 -0.2431
              CHANNELS 3 Zrotation Xrotation Yrotation
              JOINT RightWrist
              {
                OFFSET -0.0679 -23.3996 -0.1402
                CHANNELS 3 Zrotation Xrotation Yrotation
                JOINT RightFinger1
                {
                  OFFSET -0.7932 -9.0691 2.5189
                  CHANNELS 3 Zrotation Xrotation Yrotation
                  JOINT RightFinger11
                  {
                    OFFSET 0.8272 -3.3923 0.5977
                    CHANNELS 3 Zrotation Xrotation Yrotation
                    JOINT RightFinger12
                    {
                      OFFSET 0.565 -2.3158 0.4082
                      CHANNELS 3 Zrotation Xrotation Yrotation
                      End Site
                      {
                        OFFSET 0.4919 -1.6479 0.2673
                      }
                    }
                  }
                }
                JOINT RightFinger2
                {
                  OFFSET -0.916 -9.2044 0.2193
                  CHANNELS 3 Zrotation Xrotation Yrotation
                  JOINT RightFinger21
                  {
                    OFFSET -0.0117 -4.1944 -0.0248
                    CHANNELS 3 Zrotation Xrotation Yrotation
                    JOINT RightFinger22
                    {
                      OFFSET -0.0071 -2.3249 -0.0142
                      CHANNELS 3 Zrotation Xrotation Yrotation
                      End Site
                      {
                        OFFSET 0.1475 -2.0882 0.0028
                      }
                    }
                  }
                }
                JOINT RightFinger3
                {
                  OFFSET -0.6113 -8.7231 -2.0637
                  CHANNELS 3 Zrotation Xrotation Yrotation
                  JOINT RightFinger31
                  {
                    OFFSET 0.1927 -3.8059 -0.2383
                    CHANNELS 3 Zrotation Xrotation Yrotation
                    JOINT RightFinger32
                    {
                      OFFSET 0.1091 -2.1688 -0.1362
                      CHANNELS 3 Zrotation Xrotation Yrotation
                      End Site
                      {
                        OFFSET 0.2358 -1.9176 -0.0906
                      }
                    }
                  }
                }
                JOINT RightFinger4
                {
                  OFFSET 0.6151 -8.0947 -3.564
                  CHANNELS 3 Zrotation Xrotation Yrotation
                  JOINT RightFinger41
                  {
                    OFFSET 0.4882 -2.341 -0.6462
                    CHANNELS 3 Zrotation Xrotation Yrotation
                    JOINT RightFinger42
                    {
                      OFFSET 0.3574 -1.7166 -0.4742
                      CHANNELS 3 Zrotation Xrotation Yrotation
                      End Site
                      {
                        OFFSET 0.4187 -1.5237 -0.3496
                      }
                    }
                  }
                }
                JOINT RightFinger0
                {
                  OFFSET 1.4199 -1.8761 1.4221
                  CHANNELS 3 Zrotation Xrotation Yrotation
                  JOINT RightFinger01
                  {
                    OFFSET 1.1472 -3.4929 2.6336
                    CHANNELS 3 Zrotation Xrotation Yrotation
                    JOINT RightFinger02
                    {
                      OFFSET 0.8229 -2.3 1.6571
                      CHANNELS 3 Zrotation Xrotation Yrotation
                      End Site
                      {
                        OFFSET 0.5822 -1.6914 1.1582
                      }
                    }
                  }
                }
              }
            }
          }
        }
      }
    }
  }
  JOINT RightHip
  {
    OFFSET -9.412 3.9771 -0.7758
    CHANNELS 3 Zrotation Xrotation Yrotation
    JOINT RightKnee
    {
      OFFSET -0.7531 -40.938 0
      CHANNELS 3 Zrotation Xrotation Yrotation
      JOINT RightAnkle
      {
        OFFSET 0 -40.1986 0
        CHANNELS 3 Zrotation Xrotation Yrotation
        JOINT RightToe
        {
          OFFSET 0 -4.4182 9.239
          CHANNELS 3 Zrotation Xrotation Yrotation
          End Site
          {
            OFFSET 0 0 6.1981
          }
        }
      }
    }
  }
  JOINT LeftHip
  {
    OFFSET 9.4119 3.9773 -0.7758
    CHANNELS 3 Zrotation Xrotation Yrotation
    JOINT LeftKnee
    {
      OFFSET 0.7532 -40.9383 0
      CHANNELS 3 Zrotation Xrotation Yrotation
      JOINT LeftAnkle
      {
        OFFSET 0 -40.1986 0
        CHANNELS 3 Zrotation Xrotation Yrotation
        JOINT LeftToe
        {
          OFFSET 0 -4.4182 9.239
          CHANNELS 3 Zrotation Xrotation Yrotation
          End Site
          {
            OFFSET 0 0 6.1981
          }
        }
      }
    }
  }
}
MOTION
Frames:	6
Frame Time:	0.0333333
5.72205e-005 65.662 3.42586 0 0 -0 0 0 -0 0 0 -0 0 0 -0 0 0 -0 0 0 -0 0 0 -12.5014 88.1196 14.2451 10.6914 -0.00160068 -0.00239207 0.000740045 -8.4365e-005 7.00714e-005 -9.52055e-007 9.93923e-017 -1.98785e-016 -1.59028e-015 9.93923e-017 -5.96354e-016 -1.59028e-015 -9.93923e-017 -5.96354e-016 -1.59028e-015 9.93923e-017 -1.98785e-016 -1.59028e-015 -0.0128176 0.00232552 8.52707e-005 9.93923e-017 5.96354e-016 -0 9.93923e-017 -1.98785e-016 -1.59028e-015 -0.0160551 0.00299681 0.000857156 -2.48481e-016 0 3.18055e-015 9.93923e-017 -1.98785e-016 -1.59028e-015 -0.0125865 0.0031206 0.00282719 0 1.98785e-016 -0 9.93923e-017 -1.98785e-016 -1.59028e-015 9.93923e-017 -5.96354e-016 -1.59028e-015 -9.93923e-017 -5.96354e-016 -1.59028e-015 -0.865644 0.16582 7.03859 -88.0329 10.2057 -10.5567 0.0015593 -0.00248883 -0.000788628 7.87605e-005 4.10553e-005 1.24965e-005 -3.97569e-016 -7.95139e-016 3.18055e-015 -1.98785e-016 -3.97569e-016 3.18055e-015 -1.98785e-016 0 3.18055e-015 -3.97569e-016 -7.95139e-016 3.18055e-015 0.0129473 0.00231697 -8.70038e-005 9.93923e-017 -7.95139e-016 1.59028e-015 -3.97569e-016 -7.95139e-016 3.18055e-015 0.0163314 0.00303369 -0.000872333 3.97569e-016 7.95139e-016 -3.18055e-015 -3.97569e-016 -7.95139e-016 3.18055e-015 0.0145763 0.00367772 -0.00326275 9.93923e-017 -3.97569e-016 -0 -3.97569e-016 -7.95139e-016 3.18055e-015 -1.98785e-016 -3.97569e-016 3.18055e-015 -1.98785e-016 0 3.18055e-015 3.42482 1.32465 -0.0626183 0.000117508 0.717283 0.000978199 -3.4257 -2.04197 -0.0604716 6.47761e-025 0 -0 -3.42483 1.34017 0.0627307 -0.000193936 0.682302 -0.0013703 3.42574 -2.02253 0.0595886 -8.45714e-024 0 -7.40531e-025 
0.000104507 0.0248337 93.5568 -180 -80.1203 -180 3.15638e-005 -0.138112 -0.0954433 -0.000166869 -0.276149 -0.190881 -0.000166887 -0.276165 -0.190881 0.000125042 22.8875 -0.000320395 8.25547e-008 9.00526 -3.83743e-008 -8.08078 -0.430712 -12.3981 5.66783 -1.15732 23.0341 -3.83333 -42.8012 -1.19938 -16.5971 5.75594 -0.192166 -1.59028e-015 3.18055e-015 1.59028e-015 -5.29669e-031 9.54166e-015 3.18055e-015 -0 -6.36111e-015 -0 -1.59028e-015 3.18055e-015 1.59028e-015 -0.0128428 0.00232365 8.43305e-005 8.20094e-006 4.58147e-006 1.52963e-006 -1.59028e-015 3.18055e-015 1.59028e-015 -0.0160477 0.00299315 0.000856932 -3.18055e-015 1.27222e-014 4.77083e-015 -1.59028e-015 3.18055e-015 1.59028e-015 -0.0126094 0.00313336 0.00283362 -3.18055e-015 3.18055e-015 1.59028e-015 -1.59028e-015 3.18055e-015 1.59028e-015 -5.29669e-031 9.54166e-015 3.18055e-015 -0 -6.36111e-015 -0 7.2915 -0.0444161 6.85465 -5.29835 -0.375219 -17.5195 20.9942 -60.8912 14.0176 16.5651 5.56072 0.77052 3.97569e-015 3.18055e-015 3.18055e-015 4.77083e-015 -3.18055e-015 4.77083e-015 1.59028e-015 3.18055e-015 1.59028e-015 3.97569e-015 3.18055e-015 3.18055e-015 0.0129552 0.00231851 -8.7582e-005 7.95139e-016 0 -4.77083e-015 3.97569e-015 3.18055e-015 3.18055e-015 0.0163137 0.00303109 -0.000874066 -2.87695e-006 -7.69501e-007 -4.64486e-006 3.97569e-015 3.18055e-015 3.18055e-015 0.0146024 0.00368679 -0.00326774 0 3.18055e-015 -0 3.97569e-015 3.18055e-015 3.18055e-015 4.77083e-015 -3.18055e-015 4.77083e-015 1.59028e-015 3.18055e-015 1.59028e-015 -38.4274 -29.9598 -24.1249 -126.785 57.2528 132.891 1.60756 7.65918 4.34945 -5.22936e-007 -2.36415e-007 1.05905e-007 38.4088 -29.9591 24.1018 126.784 57.2522 -132.896 -1.62344 7.65861 -4.34432 5.10204e-022 -4.59551e-006 6.36111e-015 
0.00019031 3.85686 88.9797 -180 -85.9956 180 -0.000238166 -0.0245231 -0.0900042 -0.000514904 -0.0490642 -0.180019 -0.00051499 -0.0490467 -0.180019 -0.000181371 19.7829 0.000539584 -2.66807e-008 6.45497 -9.43311e-008 -6.19001 -1.19731 -12.0514 9.27563 0.233007 22.7521 -4.04581 -41.1998 -1.31647 -15.5686 6.18919 0.204308 4.77083e-015 0 1.59028e-015 3.18055e-015 -3.18055e-015 -1.59028e-015 -1.76556e-031 -6.36111e-015 -1.59028e-015 4.77083e-015 0 1.59028e-015 -0.0127899 0.00231751 8.82645e-005 3.18055e-015 -1.27222e-014 -1.59028e-015 4.77083e-015 0 1.59028e-015 -0.0160758 0.0029955 0.000864969 1.59028e-015 -6.36111e-015 -1.59028e-015 4.77083e-015 0 1.59028e-015 -0.01255 0.00311555 0.00281855 3.18055e-015 -3.18055e-015 -0 4.77083e-015 0 1.59028e-015 3.18055e-015 -3.18055e-015 -1.59028e-015 -1.76556e-031 -6.36111e-015 -1.59028e-015 5.69141 -0.0204198 6.25857 -9.08245 0.912197 -17.2513 20.1468 -58.5846 13.2912 15.5906 5.23058 0.749305 3.97569e-015 0 1.59028e-015 7.95139e-016 0 1.59028e-015 -7.95139e-016 -6.36111e-015 1.59028e-015 3.97569e-015 0 1.59028e-015 0.0129642 0.00232012 -8.42505e-005 1.59028e-015 3.18055e-015 1.59028e-015 3.97569e-015 0 1.59028e-015 0.0163314 0.00303293 -0.000871557 7.95139e-016 -3.18055e-015 1.59028e-015 3.97569e-015 0 1.59028e-015 0.0146113 0.00368725 -0.00326609 7.95139e-016 6.36111e-015 -1.59028e-015 3.97569e-015 0 1.59028e-015 7.95139e-016 0 1.59028e-015 -7.95139e-016 -6.36111e-015 1.59028e-015 -36.547 -28.5335 -23.9207 -119.012 62.3486 126.109 0.0554922 7.37544 5.10154 -4.18366e-007 -1.58974e-007 8.30224e-008 36.4835 -28.5228 23.8341 119.014 62.3478 -126.116 -0.119393 7.37379 -5.06534 -4.18396e-007 1.75571e-007 8.28601e-008 
0.000290415 3.85627 88.9795 180 -85.9956 180 -0.000528627 0.0756102 -0.0901362 -0.000938411 0.151169 -0.18028 -0.000938416 0.151166 -0.18028 -0.000338264 18.1173 0.0011095 -3.15012e-008 4.54133 -8.02842e-009 -4.84582 -1.93964 -11.6994 8.23692 0.338817 22.6442 -4.7528 -42.0312 -1.84952 -15.5262 6.91829 0.590752 -1.76556e-031 -6.36111e-015 -1.59028e-015 1.59028e-015 3.18055e-015 1.59028e-015 3.18055e-015 0 1.59028e-015 -1.76556e-031 -6.36111e-015 -1.59028e-015 -0.0128092 0.00231984 8.634e-005 3.85569e-006 7.00386e-006 6.32011e-007 -1.76556e-031 -6.36111e-015 -1.59028e-015 -0.0160753 0.00301124 0.00085568 -3.18055e-015 6.36111e-015 1.59028e-015 -1.76556e-031 -6.36111e-015 -1.59028e-015 -0.0125772 0.00310213 0.00282463 -3.18055e-015 3.18055e-015 -0 -1.76556e-031 -6.36111e-015 -1.59028e-015 1.59028e-015 3.18055e-015 1.59028e-015 3.18055e-015 0 1.59028e-015 4.63236 0.000186375 5.68502 -8.11596 1.34871 -17.0873 22.081 -59.6123 15.0347 15.5906 5.23059 0.74932 1.84475e-006 1.32781e-006 1.01553e-007 1.59028e-015 -3.18055e-015 -0 3.18055e-015 0 -0 1.84475e-006 1.32781e-006 1.01553e-007 0.0129383 0.00231849 -8.61374e-005 -2.38542e-015 3.18055e-015 -4.77083e-015 1.84475e-006 1.32781e-006 1.01553e-007 0.0163122 0.00302766 -0.000869013 3.18055e-015 0 1.59028e-015 1.84475e-006 1.32781e-006 1.01553e-007 0.0145626 0.0036728 -0.00325575 -1.59028e-015 0 -0 1.84475e-006 1.32781e-006 1.01553e-007 1.59028e-015 -3.18055e-015 -0 3.18055e-015 0 -0 -37.8656 -28.5541 -25.4272 -119.012 62.3486 126.113 -1.2244 7.60923 6.03135 1.2552e-006 2.30445e-006 -2.48308e-007 37.7574 -28.5368 25.2784 119.017 62.3473 -126.122 1.1139 7.60803 -5.96516 7.67415e-007 1.79562e-006 -6.3624e-007 
0.000385761 3.85564 88.9793 -180 -85.9956 -180 -0.000817882 0.175337 -0.0898755 -0.00136071 0.350679 -0.179745 -0.00136064 0.350648 -0.179745 0.000107894 16.4518 -0.000395434 -3.07031e-008 2.62375 -9.05049e-008 -3.49464 -2.67172 -11.3312 7.19787 0.446708 22.5381 -5.48022 -42.858 -2.40397 -15.4888 7.64793 0.977477 -1.59028e-015 -9.54166e-015 -0 -0 -9.54166e-015 -0 -1.59028e-015 -3.18055e-015 -0 -1.59028e-015 -9.54166e-015 -0 -0.0128343 0.00233643 7.73042e-005 3.18055e-015 9.54166e-015 -0 -1.59028e-015 -9.54166e-015 -0 -0.0160343 0.00299206 0.000862224 3.18055e-015 3.18055e-015 3.18055e-015 -1.59028e-015 -9.54166e-015 -0 -0.012615 0.0031198 0.00282994 2.02794e-006 -3.96537e-007 3.79498e-006 -1.59028e-015 -9.54166e-015 -0 -0 -9.54166e-015 -0 -1.59028e-015 -3.18055e-015 -0 3.5727 0.0339458 5.10931 -7.14994 1.78824 -16.9305 24.141 -60.6095 16.9045 15.5905 5.23073 0.749262 -7.95139e-016 3.18055e-015 -1.59028e-015 -3.18055e-015 0 -1.59028e-015 7.95139e-016 0 -1.59028e-015 -7.95139e-016 3.18055e-015 -1.59028e-015 0.0129617 0.00231444 -8.76392e-005 -1.84385e-006 1.39691e-006 -9.52452e-008 -7.95139e-016 3.18055e-015 -1.59028e-015 0.0163487 0.00303816 -0.000874761 3.50079e-006 -1.36019e-006 3.3375e-006 -7.95139e-016 3.18055e-015 -1.59028e-015 0.0145778 0.00367691 -0.00326714 -3.97569e-015 -6.36111e-015 4.77083e-015 -7.95139e-016 3.18055e-015 -1.59028e-015 -3.18055e-015 0 -1.59028e-015 7.95139e-016 0 -1.59028e-015 -39.1857 -28.5446 -26.9356 -119.013 62.3485 126.118 -2.51017 7.82271 6.96761 -5.69908e-007 -1.42213e-006 -1.98998e-006 39.0325 -28.5227 26.724 119.019 62.3468 -126.128 2.35278 7.82327 -6.87115 -4.1851e-007 -6.97925e-007 8.20968e-008 
0.000476281 3.85495 88.9791 180 -85.9956 180 -0.00110961 0.275587 -0.0899314 -0.0017867 0.551136 -0.179857 -0.00178672 0.551147 -0.179857 4.85153e-005 14.7825 -0.000201393 -1.84618e-007 0.70329 9.68398e-008 -2.1364 -3.39752 -10.9437 6.15845 0.556493 22.434 -6.22886 -43.6798 -2.98071 -15.4561 8.37805 1.36454 4.77083e-015 -1.27222e-014 -1.59028e-015 3.18055e-015 -1.27222e-014 -0 4.77083e-015 -9.54166e-015 -1.59028e-015 4.77083e-015 -1.27222e-014 -1.59028e-015 -0.0128107 0.002321 9.00895e-005 -1.59028e-015 -1.90833e-014 -4.77083e-015 4.77083e-015 -1.27222e-014 -1.59028e-015 -0.0160765 0.00299372 0.000861437 -3.18055e-015 6.36111e-015 -0 4.77083e-015 -1.27222e-014 -1.59028e-015 -0.0125589 0.00311258 0.00282765 1.59028e-015 3.18055e-015 -0 4.77083e-015 -1.27222e-014 -1.59028e-015 3.18055e-015 -1.27222e-014 -0 4.77083e-015 -9.54166e-015 -1.59028e-015 2.5128 0.0766789 4.53572 -6.18451 2.23049 -16.7811 26.3348 -61.5721 18.9089 15.5904 5.2309 0.749204 -2.38542e-015 3.18055e-015 -0 1.59028e-015 3.18055e-015 -1.59028e-015 0 0 -1.59028e-015 -2.38542e-015 3.18055e-015 -0 0.0129468 0.0023161 -8.59781e-005 3.97569e-015 3.18055e-015 -3.18055e-015 -2.38542e-015 3.18055e-015 -0 0.0163169 0.00303115 -0.000869901 5.00288e-006 6.51334e-008 -2.79932e-007 -2.38542e-015 3.18055e-015 -0 0.0145488 0.00367804 -0.00325954 2.38542e-015 -6.36111e-015 -0 -2.38542e-015 3.18055e-015 -0 1.59028e-015 3.18055e-015 -1.59028e-015 0 0 -1.59028e-015 -40.506 -28.5045 -28.4441 -119.013 62.3485 126.123 -3.80102 8.01556 7.90955 -3.97569e-016 6.36111e-015 3.18055e-015 40.3074 -28.4804 28.1696 119.022 62.3463 -126.135 3.59654 8.01928 -7.7826 6.81222e-008 2.90785e-006 1.81571e-006 
